<svg xmlns="http://www.w3.org/2000/svg" xmlns:xlink="http://www.w3.org/1999/xlink" width="500" zoomAndPan="magnify" viewBox="0 0 375 374.999991" height="500" preserveAspectRatio="xMidYMid meet" version="1.0"><defs><clipPath id="c095e6476c"><path d="M 84.503906 321 L 141 321 L 141 347 L 84.503906 347 Z M 84.503906 321 " clip-rule="nonzero"/></clipPath><clipPath id="6e72418b28"><rect x="0" width="327" y="0" height="375"/></clipPath></defs><g transform="matrix(1, 0, 0, 1, 24, 0)"><g clip-path="url(#6e72418b28)"><path fill="currentColor" d="M 293.25 375 L 33.441406 375 C 14.679688 375 1.09375 364.269531 1.09375 349.519531 C 1.09375 335.777344 6.960938 326.898438 7.886719 325.507812 L 113.894531 143.605469 L 113.894531 25.632812 C 104.242188 15.828125 100.769531 9.34375 102.699219 4.710938 C 103.394531 3.089844 105.324219 0.386719 110.960938 0.386719 C 111.421875 0.386719 111.808594 0.386719 112.117188 0.464844 C 113.507812 0.15625 115.128906 0 117.058594 0 C 120.148438 0 123.003906 0.386719 123.929688 0.539062 L 203.070312 0.539062 C 203.917969 0.386719 206.851562 0 209.941406 0 C 211.792969 0 213.492188 0.15625 214.882812 0.464844 C 215.191406 0.464844 215.578125 0.386719 216.039062 0.386719 C 221.597656 0.386719 223.605469 3.089844 224.300781 4.710938 C 226.230469 9.34375 222.757812 15.828125 213.105469 25.632812 L 213.105469 143.605469 L 319.113281 325.507812 C 320.039062 326.820312 325.90625 335.777344 325.90625 349.519531 C 325.597656 364.269531 312.011719 375 293.25 375 Z M 108.644531 7.410156 C 108.722656 7.410156 108.257812 10.808594 119.453125 22.003906 L 120.457031 23.007812 L 120.457031 145.460938 L 13.292969 329.292969 C 13.214844 329.371094 7.65625 337.246094 7.65625 349.519531 C 7.65625 362.492188 21.011719 368.4375 33.367188 368.4375 L 293.171875 368.4375 C 305.601562 368.4375 318.882812 362.492188 318.882812 349.519531 C 318.882812 337.089844 313.324219 329.371094 313.246094 329.292969 L 313.089844 328.984375 L 206.234375 145.382812 L 206.234375 22.929688 L 207.238281 21.925781 C 218.589844 10.578125 217.96875 7.257812 217.96875 7.179688 C 217.96875 7.257812 217.277344 6.949219 215.808594 6.949219 C 215.34375 6.949219 214.960938 6.949219 214.726562 7.027344 L 214.1875 7.101562 L 213.648438 6.949219 C 213.027344 6.792969 211.792969 6.5625 209.785156 6.5625 C 206.699219 6.5625 203.765625 7.027344 203.6875 7.027344 L 203.144531 7.101562 L 123.082031 7.101562 C 123.082031 7.101562 120.070312 6.640625 116.980469 6.640625 C 114.976562 6.640625 113.738281 6.871094 113.121094 7.027344 L 112.582031 7.179688 L 111.964844 7.101562 C 111.730469 7.101562 111.347656 7.027344 110.882812 7.027344 C 109.492188 7.027344 108.796875 7.257812 108.644531 7.410156 Z M 108.644531 7.410156 " fill-opacity="1" fill-rule="nonzero"/><path fill="#00a99d" d="M 235.574219 222.203125 C 235.574219 222.203125 274.71875 286.289062 286.609375 304.894531 C 298.5 323.503906 304.445312 330.992188 300.660156 346.585938 C 296.878906 362.183594 277.113281 361.644531 277.113281 361.644531 C 277.113281 361.644531 91.65625 361.644531 61.546875 361.644531 C 31.511719 361.644531 29.351562 355.542969 25.953125 345.816406 C 22.554688 336.164062 29.738281 322.882812 29.738281 322.882812 L 90.191406 221.820312 C 95.75 215.257812 235.574219 222.203125 235.574219 222.203125 Z M 171.800781 182.984375 C 162.457031 176.421875 152.1875 186.613281 158.828125 195.953125 C 159.058594 196.261719 159.292969 196.496094 159.523438 196.648438 C 168.867188 203.210938 179.132812 193.019531 172.496094 183.679688 C 172.339844 183.445312 172.109375 183.214844 171.800781 182.984375 Z M 165.082031 114.269531 C 151.03125 104.308594 135.589844 119.75 145.550781 133.800781 C 145.859375 134.1875 146.167969 134.496094 146.554688 134.804688 C 160.605469 144.765625 176.046875 129.324219 166.085938 115.273438 C 165.855469 114.886719 165.46875 114.5 165.082031 114.269531 Z M 188.398438 146.464844 C 174.347656 136.503906 158.90625 151.945312 168.867188 165.996094 C 169.175781 166.382812 169.484375 166.691406 169.871094 167 C 183.921875 176.960938 199.363281 161.519531 189.402344 147.46875 C 189.09375 147.082031 188.785156 146.773438 188.398438 146.464844 Z M 188.398438 146.464844 " fill-opacity="1" fill-rule="nonzero"/><path fill="#b9e9ff" d="M 225.949219 271.761719 C 223.082031 276.375 203.308594 284.519531 188.203125 271.648438 C 184.8125 274.234375 175.816406 278.925781 176.613281 275.082031 C 177.074219 272.851562 177.90625 271.011719 179.191406 269.234375 C 177.480469 266.753906 176.71875 264.140625 176.953125 261.011719 C 177.222656 257.332031 183.203125 263.28125 185.941406 266.011719 C 206.097656 250.804688 228.816406 267.132812 225.949219 271.761719 Z M 225.949219 271.761719 " fill-opacity="1" fill-rule="nonzero"/><path fill="#115676" d="M 211.882812 319.894531 C 200.882812 328.621094 184.503906 333.953125 172.828125 324.253906 C 169.96875 326.660156 166.585938 328.195312 162.757812 328.808594 C 159.097656 329.417969 162.808594 322.707031 165.921875 319.988281 C 163.847656 316.972656 161.425781 310.648438 164.527344 311.542969 C 167.230469 312.308594 169.484375 313.59375 171.445312 315.515625 C 189.207031 301.21875 215.109375 317.351562 211.882812 319.894531 Z M 211.882812 319.894531 " fill-opacity="1" fill-rule="nonzero"/><path fill="#115676" d="M 263.546875 296.222656 C 262.367188 305.328125 231.570312 312.664062 216.207031 299.71875 C 206.96875 307.664062 208.882812 298.738281 211.675781 295.65625 C 204.25 287.0625 212.285156 285.3125 218.6875 290.925781 C 240.195312 278.691406 264.164062 291.425781 263.546875 296.222656 Z M 263.546875 296.222656 " fill-opacity="1" fill-rule="nonzero"/><g clip-path="url(#c095e6476c)"><path fill="#b9e9ff" d="M 139.851562 331.882812 C 145.839844 340.453125 116.871094 355.511719 95.070312 339.773438 C 92.390625 341.582031 84.765625 346.59375 84.789062 343.398438 C 84.847656 336.335938 88.246094 335.902344 88.246094 334.273438 C 88.234375 332.375 85.402344 332.425781 84.765625 326.277344 C 84.523438 324.027344 89.988281 325.238281 91.976562 326.375 C 92.71875 326.804688 94.140625 328.589844 94.761719 328.734375 C 95.878906 329 96.953125 327.855469 97.75 327.378906 C 116.40625 316.195312 133.839844 323.289062 139.851562 331.882812 Z M 139.851562 331.882812 " fill-opacity="1" fill-rule="nonzero"/></g><path fill="#115676" d="M 168.371094 290.5625 C 167.292969 285.855469 145.246094 275.734375 127.207031 288.433594 C 126.355469 287.488281 125.324219 286.691406 124.113281 285.992188 C 113.886719 280.132812 113.984375 287.847656 118.867188 291.988281 C 117.367188 295.449219 115.5 303.164062 118.574219 301.589844 C 121.390625 300.113281 123.472656 298.152344 125.054688 295.511719 C 153.753906 311.410156 169.324219 294.75 168.371094 290.5625 Z M 168.371094 290.5625 " fill-opacity="1" fill-rule="nonzero"/><path fill="#115676" d="M 140.515625 253.140625 C 130.988281 266.589844 109.3125 262.773438 98.109375 253.535156 C 95.726562 256.492188 92.933594 258.808594 89.503906 260.605469 C 86.316406 262.265625 86.914062 254.679688 91.8125 250.371094 C 89.285156 246.667969 87.421875 239.207031 90.550781 240.414062 C 93.714844 241.605469 96.347656 243.351562 98.515625 245.703125 C 118.507812 231.757812 142.65625 250.152344 140.515625 253.140625 Z M 140.515625 253.140625 " fill-opacity="1" fill-rule="nonzero"/></g></g></svg>